# xmcd
#
# Track frame offsets:
#	150
#	19081
#	33132
#	48688
#	61752
#	79915
#	97117
#	110932
#	124571
#
# Disc length: 1827 seconds
#
# Revision: 0
# Processed by: cddbd v1.5.2PL0 Copyright (c) Steve Scherf et al.
# Submitted via: audiograbber 1.83.01
#
DISCID=74072109
DTITLE=Various Artist - CD TEX Vol.69 September 2008
DYEAR=2008
DGENRE=Country Rock
TTITLE0=Mike Clifford - West Texas Sun
TTITLE1=Sam Sliva - Jim Marshall
TTITLE2=David Glenn - They Call Me Al...Alcoholic
TTITLE3=Stewart Mann and The Statesboro Revue - Stuck In Here
TTITLE4=Shiela Harrison - Liquid Sunshine
TTITLE5=Shawna Russell - Should've Been Born With Wheels
TTITLE6=Rachel Stacy - That's Love
TTITLE7=Billy O'Rourke - Buster
TTITLE8=Johnny Bush - Mental Revenge
EXTD=
EXTT0=
EXTT1=
EXTT2=
EXTT3=
EXTT4=
EXTT5=
EXTT6=
EXTT7=
EXTT8=
PLAYORDER=
